<svg width="172" height="66" viewBox="0 0 172 66" fill="none" xmlns="http://www.w3.org/2000/svg">
<path id="Arrow 6" d="M155.6 1.85786L155.592 3.35784L155.6 1.85786ZM6.4544 59.0626L7.46338 60.1725L6.4544 59.0626ZM1.82826 64.7012C1.00078 64.6618 0.361931 63.959 0.401362 63.1315L1.04399 49.6468C1.08342 48.8194 1.7862 48.1805 2.61368 48.2199C3.44118 48.2594 4.08002 48.9622 4.04059 49.7896L3.46937 61.776L15.4558 62.3473C16.2832 62.3867 16.9221 63.0895 16.8827 63.917C16.8432 64.7445 16.1404 65.3833 15.313 65.3439L1.82826 64.7012ZM171.48 3.44186L155.592 3.35784L155.608 0.357882L171.496 0.441897L171.48 3.44186ZM7.46338 60.1725L2.90863 64.3129L0.890691 62.093L5.44543 57.9526L7.46338 60.1725ZM155.592 3.35784C100.841 3.06831 47.9774 23.3443 7.46338 60.1725L5.44543 57.9526C46.5157 20.6188 100.106 0.0643736 155.608 0.357882L155.592 3.35784Z" fill="white"/>
</svg>
