<svg id="Слой_1" data-name="Слой 1" xmlns="http://www.w3.org/2000/svg" viewBox="0 0 120 120">
  <g>
    <polygon points="55.68 102.52 28.66 110.58 1.63 118.63 8.75 94.07 17.52 91.46 11.51 84.56 18.63 60 55.68 102.52"/>
    <g>
      <polygon points="83.28 43.51 83.27 43.5 83.27 43.52 83.28 43.51"/>
      <path d="M118.37.57,63.58,16.9,8.79,33.23l75.12,86.2L98.34,69.64l-12.18-14,17.77-5.3ZM83,47.86l-7.49,4.36,0-4.14.33-.2,2.15-1.25-11.89,0,.07,16.94c0,3,.75,5.16,2.22,6.51s3.89,2,7.25,2c1.19,0,2.46-.09,3.79-.22s2.86-.31,4.58-.53L84.84,78c-1.67.29-3.29.5-4.87.66s-3.28.22-5.07.23c-5.74,0-9.91-1.15-12.48-3.52S58.56,69.23,58.54,64l-.07-17.3-9.52,0,0-6.18,9.52,0,0-11.4,7.58,0,0,11.4,11.89-.05-2.16-1.23-.33-.2,0-4.13,15.06,8.6Z"/>
    </g>
  </g>
</svg>
