<?xml version="1.0" encoding="UTF-8" standalone="no"?>
<!-- Created with Inkscape (http://www.inkscape.org/) -->

<svg
   version="1.1"
   id="svg1"
   width="1243.308"
   height="1544.3199"
   viewBox="0 0 1243.308 1544.3199"
   sodipodi:docname="futures_true.svg"
   inkscape:version="1.3.2 (091e20ef0f, 2023-11-25, custom)"
   xmlns:inkscape="http://www.inkscape.org/namespaces/inkscape"
   xmlns:sodipodi="http://sodipodi.sourceforge.net/DTD/sodipodi-0.dtd"
   xmlns="http://www.w3.org/2000/svg"
   xmlns:svg="http://www.w3.org/2000/svg">
  <defs
     id="defs1" />
  <sodipodi:namedview
     id="namedview1"
     pagecolor="#999999"
     bordercolor="#000000"
     borderopacity="0.25"
     inkscape:showpageshadow="2"
     inkscape:pageopacity="0.0"
     inkscape:pagecheckerboard="0"
     inkscape:deskcolor="#d1d1d1"
     inkscape:zoom="0.29849999"
     inkscape:cx="621.44056"
     inkscape:cy="690.11728"
     inkscape:window-width="1920"
     inkscape:window-height="1000"
     inkscape:window-x="1280"
     inkscape:window-y="60"
     inkscape:window-maximized="1"
     inkscape:current-layer="group-R5">
    <inkscape:page
       x="0"
       y="0"
       inkscape:label="1"
       id="page1"
       width="1243.308"
       height="1544.3199"
       margin="0"
       bleed="0" />
  </sodipodi:namedview>
  <g
     id="g1"
     inkscape:groupmode="layer"
     inkscape:label="1"
     transform="translate(-711.67866,-561.17341)">
    <g
       id="group-R5">
      <path
         id="path3"
         d="m 11403.6,11943.8 c 0,110.4 -89.5,200 -200,200 H 7313.64 c -110.46,0 -200,-89.6 -200,-200 0,-110.5 89.54,-200 200,-200 h 3889.96 c 110.5,0 200,89.5 200,200"
         style="fill:#ffffff;fill-opacity:1;fill-rule:nonzero;stroke:none"
         transform="matrix(0.13333333,0,0,-0.13333333,0,2666.6667)" />
      <path
         id="path4"
         d="M 10063.7,10383.8 H 7313.64 c -110.46,0 -200,-89.6 -200,-200 0,-110.5 89.54,-200 200,-200 h 2131.43 c 193.39,155.4 400.54,289.2 618.63,400"
         style="fill:#ffffff;fill-opacity:1;fill-rule:nonzero;stroke:none"
         transform="matrix(0.13333333,0,0,-0.13333333,0,2666.6667)" />
      <path
         id="path5"
         d="m 7113.64,8423.8 v 0 c 0,-110.5 89.54,-200 200,-200 h 939.97 c 40.95,136.3 90.1,269.8 147.06,400 H 7313.64 c -110.46,0 -200,-89.6 -200,-200"
         style="fill:#ffffff;fill-opacity:1;fill-rule:nonzero;stroke:none"
         transform="matrix(0.13333333,0,0,-0.13333333,0,2666.6667)" />
      <path
         id="path6"
         d="m 10857.6,15108.4 1757.1,-1757.2 H 10857.6 Z M 5737.59,6071.2 v 9320 h 4720.01 v -2240 c 0,-110.4 89.5,-200 200,-200 h 2240 v -2377.8 c 136.7,-49.5 270.3,-107.4 400,-173.5 v 2751.3 c 0,1.1 -0.1,2 -0.2,3.1 0,4.5 -0.3,9.1 -0.6,13.6 -0.2,1.7 -0.3,3.4 -0.5,5 -0.6,5.9 -1.4,11.7 -2.6,17.5 0,0.1 -0.1,0.3 -0.1,0.4 -1.1,5.6 -2.6,11.2 -4.2,16.7 -0.4,1.6 -1,3.2 -1.5,4.7 -1.3,4.3 -2.9,8.5 -4.5,12.7 -0.6,1.5 -1.1,2.9 -1.7,4.3 -2.3,5.5 -4.8,10.9 -7.6,16.2 -0.1,0.1 -0.2,0.2 -0.3,0.3 -2.7,5.1 -5.7,10 -8.8,14.8 -0.9,1.4 -1.9,2.7 -2.8,4.1 -2.5,3.7 -5.2,7.3 -8,10.8 -1,1.3 -2.1,2.6 -3.1,3.9 -3.8,4.6 -7.8,9.1 -12.1,13.4 l -2440,2440 c -4.2,4.2 -8.7,8.2 -13.2,12 -1.4,1.1 -2.8,2.2 -4.2,3.3 -3.4,2.7 -6.9,5.3 -10.5,7.7 -1.4,1 -2.9,2 -4.4,3 -4.5,3 -9.2,5.8 -14,8.4 -0.3,0.2 -0.7,0.4 -1.1,0.7 -5.2,2.7 -10.5,5.2 -15.8,7.4 -1.6,0.7 -3.2,1.3 -4.8,1.9 -4,1.6 -8.1,3.1 -12.1,4.4 -1.8,0.5 -3.5,1.1 -5.2,1.6 -5.3,1.5 -10.6,2.9 -15.9,4 -0.4,0.1 -0.8,0.2 -1.2,0.3 -5.7,1.1 -11.5,1.9 -17.3,2.6 -1.7,0.1 -3.4,0.3 -5.1,0.4 -4.5,0.4 -9,0.6 -13.5,0.7 -1,0 -2.1,0.1 -3.1,0.1 H 5537.59 c -110.46,0 -200,-89.5 -200,-200 v -9720 c 0,-110.4 89.54,-200 200,-200 h 2902.55 c -61.74,130 -115.43,263.5 -160.9,400 H 5737.59"
         style="fill:#ffffff;fill-opacity:1;fill-rule:nonzero;stroke:none"
         transform="matrix(0.13333333,0,0,-0.13333333,0,2666.6667)" />
      <path
         id="path7"
         d="m 11682.4,4608.8 c -1422.6,0 -2579.99,1157.4 -2579.99,2580 0,1422.6 1157.39,2580 2579.99,2580 1422.6,0 2580,-1157.4 2580,-2580 0,-1422.6 -1157.4,-2580 -2580,-2580 z m 2107.2,4687.1 c -562.9,562.9 -1311.2,872.9 -2107.2,872.9 -796,0 -1544.3,-310 -2107.17,-872.9 -562.84,-562.8 -872.82,-1311.1 -872.82,-2107.1 0,-796 309.98,-1544.4 872.82,-2107.2 562.87,-562.9 1311.17,-872.8 2107.17,-872.8 796,0 1544.3,309.9 2107.2,872.8 562.8,562.8 872.8,1311.2 872.8,2107.2 0,796 -310,1544.3 -872.8,2107.1"
         style="fill:#ffffff;fill-opacity:1;fill-rule:nonzero;stroke:none"
         transform="matrix(0.13333333,0,0,-0.13333333,0,2666.6667)" />
      <path
         id="path8"
         d="m 13463.8,8410.2 c -78.1,78.1 -204.7,78.1 -282.8,0 l -2348.6,-2348.6 -958.56,958.6 c -78.11,78.1 -204.75,78.1 -282.85,0 -78.1,-78.1 -78.1,-204.8 0,-282.9 L 10691,5637.3 c 39,-39 90.2,-58.5 141.4,-58.5 51.2,0 102.4,19.5 141.4,58.5 l 2490,2490 c 78.1,78.1 78.1,204.8 0,282.9"
         style="fill:#0bff0c;fill-opacity:1;fill-rule:nonzero;stroke:none"
         transform="matrix(0.13333333,0,0,-0.13333333,0,2666.6667)" />
    </g>
  </g>
</svg>
