<svg width="40" height="40" fill="none" xmlns="http://www.w3.org/2000/svg"><circle cx="20" cy="20" r="20" fill="url(#paint0_linear_1235_7165)"/><path d="M5.933 17.6c.993 0 1.697.566 1.697 1.447a1.044 1.044 0 01-.426.916c.503.256.805.695.805 1.36 0 .927-.766 1.68-1.808 1.68H2.4V17.6h3.532zm-2.288 2.081h2.333a.479.479 0 00.328-.156.464.464 0 00.12-.338c0-.234-.13-.495-.547-.495H3.645v.99zm0 2.217H6.16c.397 0 .635-.244.635-.576a.546.546 0 00-.17-.422.563.563 0 00-.435-.155H3.645v1.153zM13.816 17.6v1.104h-3.742v.99h3.365v1.104h-3.365v1.075h3.88v1.123H8.842V17.6h4.975zm4.297 0c1.29 0 2.264.85 2.264 2.12.012.367-.08.73-.269 1.048a1.978 1.978 0 01-.793.749L20.153 23h-1.35l-.646-1.202h-2.044V23H14.87v-5.4h3.242zm-1.995 3.087h1.945c.635 0 1.073-.341 1.073-.968 0-.626-.438-1.005-1.073-1.005h-1.945v1.973zm6.314-3.087v5.402h-1.24v-5.401h1.24zm4.526 0c.994 0 1.697.566 1.697 1.447a1.044 1.044 0 01-.425.916c.503.256.804.695.804 1.36 0 .927-.766 1.68-1.808 1.68h-3.8V17.6h3.532zm-2.292 2.081h2.332a.479.479 0 00.328-.156.464.464 0 00.12-.338c0-.234-.13-.495-.547-.495h-2.233v.99zm0 2.217h2.522c.397 0 .635-.244.635-.576a.547.547 0 00-.17-.422.563.563 0 00-.435-.155h-2.552v1.153zM31.1 17.6v5.402h-1.24v-5.401h1.24zm6.5 0v1.094h-2.234v4.309h-1.24v-4.31h-2.233v-1.092H37.6z" fill="#1A2C46"/><defs><linearGradient id="paint0_linear_1235_7165" x1="0" y1="18.947" x2="40" y2="18.947" gradientUnits="userSpaceOnUse"><stop stop-color="#fff"/><stop offset="1" stop-color="#DDF2FF"/></linearGradient></defs></svg>